<svg width="56" height="62" viewBox="0 0 56 62" fill="none" xmlns="http://www.w3.org/2000/svg">
<path d="M52.7944 6.10843C51.1076 6.10843 49.7402 4.74101 49.7402 3.05422C49.7402 1.36742 51.1076 -2.07236e-07 52.7944 -1.33504e-07C54.4812 -5.97718e-08 55.8486 1.36742 55.8486 3.05422C55.8486 4.74101 54.4812 6.10843 52.7944 6.10843Z" fill="#488DF4"/>
<path d="M22.2524 6.10843C20.5656 6.10843 19.1982 4.74101 19.1982 3.05422C19.1982 1.36742 20.5656 -2.07236e-07 22.2524 -1.33504e-07C23.9392 -5.97718e-08 25.3066 1.36742 25.3066 3.05422C25.3066 4.74101 23.9392 6.10843 22.2524 6.10843Z" fill="#488DF4"/>
<path d="M3.05418 24.8702C1.36738 24.8702 -3.54932e-05 23.5027 -3.54195e-05 21.8159C-3.53457e-05 20.1291 1.36738 18.7617 3.05418 18.7617C4.74098 18.7617 6.1084 20.1291 6.1084 21.8159C6.1084 23.5027 4.74098 24.8702 3.05418 24.8702Z" fill="#488DF4"/>
<path d="M18.7612 61.9571C17.0744 61.9571 15.707 60.5896 15.707 58.9028C15.707 57.2161 17.0744 55.8486 18.7612 55.8486C20.448 55.8486 21.8154 57.2161 21.8154 58.9028C21.8154 60.5896 20.448 61.9571 18.7612 61.9571Z" fill="#488DF4"/>
<path d="M52.7944 36.2144C51.1076 36.2144 49.7402 34.847 49.7402 33.1602C49.7402 31.4734 51.1076 30.106 52.7944 30.106C54.4812 30.106 55.8486 31.4734 55.8486 33.1602C55.8486 34.847 54.4812 36.2144 52.7944 36.2144Z" fill="#488DF4"/>
<path d="M18.7615 45.3768C14.4241 45.3768 10.9078 41.8606 10.9078 37.5231C10.9078 33.1857 14.4241 29.6694 18.7615 29.6694C23.099 29.6694 26.6152 33.1857 26.6152 37.5231C26.6152 41.8606 23.099 45.3768 18.7615 45.3768Z" fill="#488DF4"/>
<path d="M37.5233 26.1791C33.1858 26.1791 29.6696 22.6629 29.6696 18.3254C29.6696 13.9879 33.1858 10.4717 37.5233 10.4717C41.8607 10.4717 45.377 13.9879 45.377 18.3254C45.377 22.6629 41.8607 26.1791 37.5233 26.1791Z" fill="#488DF4"/>
<path fill-rule="evenodd" clip-rule="evenodd" d="M11.3441 31.8512L5.23571 25.7428L6.77832 24.2002L12.8868 30.3086L11.3441 31.8512Z" fill="#488DF4"/>
<path fill-rule="evenodd" clip-rule="evenodd" d="M30.5424 12.653L24.4339 6.54457L25.9766 5.00195L32.085 11.1104L30.5424 12.653Z" fill="#488DF4"/>
<path fill-rule="evenodd" clip-rule="evenodd" d="M48.8676 31.4147L42.7591 25.3063L44.3018 23.7637L50.4102 29.8721L48.8676 31.4147Z" fill="#488DF4"/>
<path fill-rule="evenodd" clip-rule="evenodd" d="M24.4339 30.1059L30.5423 23.9974L32.085 25.54L25.9765 31.6485L24.4339 30.1059Z" fill="#488DF4"/>
<path fill-rule="evenodd" clip-rule="evenodd" d="M19.9521 46.2496L19.9521 54.8882L17.7705 54.8882L17.7705 46.2496L19.9521 46.2496Z" fill="#488DF4"/>
<path fill-rule="evenodd" clip-rule="evenodd" d="M43.1956 11.3441L49.3041 5.23571L50.8467 6.77832L44.7382 12.8868L43.1956 11.3441Z" fill="#488DF4"/>
</svg>
