<svg width="137" height="56" viewBox="0 0 137 56" xmlns="http://www.w3.org/2000/svg"><g fill-rule="nonzero" fill="none"><g fill="#1A9FD9"><path d="M18.78.32h9.264v23.114H18.78zM18.78 32.708h9.264v23.15H18.78zM.215.32H9.48v55.502H.214z"/></g><path d="M65.173 28.107V.357H55.91v27.75c0 2.568-2.076 4.637-4.65 4.637-2.577 0-4.65-2.07-4.65-4.637V.357h-9.266v27.75c0 7.67 6.224 13.875 13.915 13.875 7.69 0 13.913-6.206 13.913-13.875z" fill="#E62F2B"/><g><g fill="#1A9FD9"><path d="M86.242 9.952c-1.288 0-2.29-.82-2.29-2.283V.5h1.54v7.17c0 .534.285.82.714.82.43 0 .823-.286.823-.82V.5h1.537v7.17c.036 1.568-1.037 2.282-2.325 2.282zM93.897 9.88l-2.182-5.814V9.88h-1.467V.535h1.36L93.79 6.42V.535h1.466V9.88M96.902 9.88V.535h1.538V9.88M103.376 9.595l-.18.285h-1.716l-.18-.285c-.643-1.177-1.286-2.533-1.286-4.637V.428h1.538v4.28c0 1.463.286 2.71.715 3.638.465-.998.823-2.175.823-3.638V.428h1.538v4.53c0 2.104-.608 3.46-1.252 4.637zM106.202 9.88V.535h4.113v1.462h-2.647V4.46h2.182v1.46h-2.182v2.64h2.647v1.463h-4.113M114.93 9.88V6.99c0-.64-.18-.998-.823-.998h-.715V9.88h-1.538V.535h2.36c1.467 0 2.29.892 2.29 2.354v.64c0 .822-.287 1.357-.716 1.642.537.285.716.82.716 1.64V9.81h-1.538v.07h-.036zm0-6.92c0-.642-.18-.998-.823-.998h-.715v2.532h.715c.644 0 .823-.356.823-1.105v-.43zM120.116 9.952c-1.287 0-2.29-.892-2.29-2.176v-.642h1.54v.535c0 .534.357.82.822.82.465 0 .715-.286.715-.82V7.31c0-.464-.107-.713-.465-1l-1.824-1.532c-.286-.286-.823-.892-.823-1.712v-.464c0-1.284.896-2.283 2.29-2.283 1.36 0 2.29.893 2.29 2.284v.642h-1.538v-.642c0-.464-.286-.82-.716-.82s-.822.285-.822.82v.285c0 .463.18.64.465.89l1.823 1.535c.537.463.823.998.823 1.712v.713c0 1.32-1.002 2.212-2.29 2.212zM123.872 9.88V.535h1.538V9.88M129.596 1.855v7.99h-1.54v-7.99h-1.716V.5h5.008v1.355M135.32 6.42l-.18.286V9.88h-1.538V6.706l-.18-.286c-.643-1.177-1.358-2.354-1.358-4.458V.428h1.538v1.355c0 1.463.358 2.533.823 3.46.465-.89.715-1.89.715-3.46V.428h1.538v1.534c.036 2.104-.608 3.28-1.36 4.458z"/></g><g fill="#1A9FD9"><path d="M86.242 25.29c-1.288 0-2.29-.82-2.29-2.284v-4.993c0-1.534 1.002-2.354 2.29-2.354s2.29.82 2.29 2.28v4.995c0 1.534-1.002 2.354-2.29 2.354zm.75-7.35c0-.534-.285-.82-.714-.82-.43 0-.716.286-.716.82v4.995c0 .535.287.82.716.82.43 0 .715-.285.715-.82V17.94zM91.715 17.228v2.46h2.182v1.464h-2.182v4.102h-1.538v-9.346h4.113v1.463h-2.54v-.142M101.623 25.218v-4.102h-1.538v4.102h-1.538v-7.17c0-1.533 1.002-2.354 2.29-2.354 1.287 0 2.29.82 2.29 2.283v7.17h-1.468v.07h-.037zm0-7.277c0-.534-.286-.82-.822-.82-.464 0-.715.286-.715.82v1.714h1.538V17.94zM107.203 21.223h-.822v3.888h-1.537v-9.344h2.36c1.467 0 2.29.89 2.29 2.354v.642c-.036 1.64-.86 2.46-2.29 2.46zm.716-2.996c0-.642-.18-1-.824-1h-.715v2.534h.716c.644 0 .823-.356.823-1.105v-.428zM113.034 21.223h-.823v3.888h-1.537v-9.344h2.36c1.468 0 2.29.89 2.29 2.354v.642c-.036 1.64-.858 2.46-2.29 2.46zm.715-2.996c0-.642-.18-1-.823-1h-.716v2.534h.717c.643 0 .822-.356.822-1.105v-.428zM116.468 25.218v-9.345h1.538v7.99h2.647v1.462h-4.185M121.87 25.218v-9.345h1.537v9.345M125.053 25.218v-9.345h4.078v1.462h-2.646v2.46h2.182v1.464h-2.182v2.638h2.647v1.463h-4.113v-.142M133.065 25.218h-2.36v-9.345h2.36c1.467 0 2.29.89 2.29 2.354v4.637c-.108 1.426-.86 2.354-2.29 2.354zm.716-6.99c0-.643-.178-1-.822-1h-.715v6.527h.715c.644 0 .823-.356.823-1.105v-4.423z"/></g><g fill="#1A9FD9"><path d="M85.992 40.555c-1.288 0-2.29-.89-2.29-2.175v-.642h1.538v.535c0 .535.358.82.823.82.465 0 .716-.285.716-.82v-.286c0-.463-.11-.713-.466-.998l-1.825-1.535c-.287-.286-.823-.892-.823-1.712v-.464c0-1.285.894-2.284 2.29-2.284 1.394 0 2.288.892 2.288 2.283v.64h-1.538v-.64c0-.465-.286-.82-.715-.82-.43 0-.823.284-.823.82v.284c0 .464.178.642.464.892l1.824 1.534c.537.464.823 1 .823 1.712v.713c-.035 1.25-1.036 2.14-2.288 2.14zM92 40.555c-1.287 0-2.288-.82-2.288-2.282V33.28c0-1.535 1-2.355 2.29-2.355 1.287 0 2.288.82 2.288 2.283v.998h-1.538v-.998c0-.535-.286-.82-.715-.82-.43 0-.716.285-.716.82V38.2c0 .536.288.822.717.822.43 0 .715-.286.715-.82v-1.178h1.538v1.106c-.035 1.712-1.037 2.425-2.29 2.425zM95.9 40.448v-9.345h1.538v9.345M99.084 40.448v-9.345h4.113v1.463h-2.647v2.46h2.182v1.463h-2.182v2.64h2.647v1.46h-4.113M108.384 40.448l-2.182-5.814v5.814h-1.467v-9.345h1.36l2.182 5.886v-5.887h1.466v9.345M113.642 40.555c-1.288 0-2.29-.82-2.29-2.282V33.28c0-1.535 1.002-2.355 2.29-2.355s2.29.82 2.29 2.283v.998h-1.54v-.998c0-.535-.285-.82-.714-.82-.43 0-.716.285-.716.82V38.2c0 .536.287.822.716.822.43 0 .715-.286.715-.82v-1.178h1.538v1.106c0 1.712-1 2.425-2.288 2.425zM117.577 40.448v-9.345h4.113v1.463h-2.647v2.46h2.182v1.463h-2.182v2.64h2.647v1.46h-4.113M125.232 40.555c-1.288 0-2.29-.89-2.29-2.175v-.642h1.538v.535c0 .535.358.82.823.82.465 0 .716-.285.716-.82v-.286c0-.463-.11-.713-.466-.998l-1.825-1.535c-.287-.286-.823-.892-.823-1.712v-.464c0-1.285.894-2.284 2.29-2.284 1.358 0 2.288.892 2.288 2.283v.64h-1.538v-.64c0-.465-.286-.82-.715-.82-.43 0-.823.284-.823.82v.284c0 .464.178.642.464.892l1.824 1.534c.537.464.823 1 .823 1.712v.713c-.035 1.25-1.036 2.14-2.288 2.14z"/></g><g fill="#E62F2B"><path d="M86.242 55.893c-1.288 0-2.29-.82-2.29-2.283v-7.17h1.54v7.17c0 .535.285.82.714.82.43 0 .823-.285.823-.82v-7.17h1.537v7.17c.036 1.463-1.037 2.283-2.325 2.283zM92.895 47.832v7.99h-1.538v-7.99H89.64v-1.356h5.008v1.356M98.62 55.822v-2.89c0-.642-.18-.998-.824-.998h-.716v3.888h-1.538v-9.346h2.36c1.468 0 2.29.892 2.29 2.355v.643c0 .82-.286 1.355-.715 1.64.537.286.715.82.715 1.64v2.997h-1.538v.072h-.035zm0-6.92c0-.642-.18-1-.824-1h-.716v2.534h.716c.644 0 .823-.357.823-1.106v-.428zM101.73 55.822v-9.346h4.114v1.463h-2.647v2.46h2.182v1.462h-2.183v2.64h2.647v1.462h-4.113M109.636 55.893c-1.288 0-2.29-.82-2.29-2.283v-4.993c0-1.534 1.002-2.355 2.29-2.355 1.287 0 2.29.82 2.29 2.283v1h-1.54v-1c0-.535-.285-.82-.714-.82-.43 0-.716.285-.716.82v4.994c0 .534.286.82.716.82s.715-.286.715-.82V52.36h1.538v1.106c.107 1.605-1.002 2.425-2.29 2.425zM116.647 55.822V51.72h-1.538v4.102h-1.54v-9.346h1.54v3.888h1.537v-3.888h1.538v9.346M122.477 47.832v7.99h-1.538v-7.99h-1.718v-1.356h5.008v1.356"/></g></g></g></svg>