<svg width="6" height="9" viewBox="0 0 6 9" fill="none" xmlns="http://www.w3.org/2000/svg">
<path d="M0.65625 2.66016V3.99023H2.46094V7.67578H0.65625V9H5.82422V7.67578H4.10742V2.66016H0.65625ZM2.34375 1.03711C2.34375 1.16211 2.36523 1.2793 2.4082 1.38867C2.45508 1.49414 2.51953 1.58398 2.60156 1.6582C2.68359 1.73633 2.78125 1.79688 2.89453 1.83984C3.01172 1.88281 3.14062 1.9043 3.28125 1.9043C3.57031 1.9043 3.79883 1.82422 3.9668 1.66406C4.13867 1.5 4.22461 1.29102 4.22461 1.03711C4.22461 0.783203 4.13867 0.576172 3.9668 0.416016C3.79883 0.251953 3.57031 0.169922 3.28125 0.169922C3.14062 0.169922 3.01172 0.191406 2.89453 0.234375C2.78125 0.277344 2.68359 0.335938 2.60156 0.410156C2.51953 0.488281 2.45508 0.582031 2.4082 0.691406C2.36523 0.796875 2.34375 0.912109 2.34375 1.03711Z" fill="#488DF4"/>
</svg>
