<svg width="66" height="44" viewBox="0 0 66 44" fill="none" xmlns="http://www.w3.org/2000/svg">
<path d="M35.7784 40.5777C35.7784 42.2645 34.4109 43.6319 32.7241 43.6319C31.0373 43.6319 29.6699 42.2645 29.6699 40.5777C29.6699 38.8909 31.0373 37.5234 32.7241 37.5234C34.4109 37.5234 35.7784 38.8909 35.7784 40.5777Z" fill="#488DF4"/>
<path d="M32.7241 18.3252C31.0373 18.3252 29.6699 16.9578 29.6699 15.271C29.6699 13.5842 31.0373 12.2168 32.7241 12.2168C34.4109 12.2168 35.7783 13.5842 35.7783 15.271C35.7783 16.9578 34.4109 18.3252 32.7241 18.3252Z" fill="#488DF4"/>
<path d="M3.05418 6.10843C1.36738 6.10843 -3.54932e-05 4.74101 -3.54195e-05 3.05422C-3.53457e-05 1.36742 1.36738 -2.07236e-07 3.05418 -1.33504e-07C4.74098 -5.97718e-08 6.1084 1.36742 6.1084 3.05422C6.1084 4.74101 4.74098 6.10843 3.05418 6.10843Z" fill="#488DF4"/>
<path d="M15.271 18.3252C13.5842 18.3252 12.2168 16.9578 12.2168 15.271C12.2168 13.5842 13.5842 12.2168 15.271 12.2168C16.9578 12.2168 18.3252 13.5842 18.3252 15.271C18.3252 16.9578 16.9578 18.3252 15.271 18.3252Z" fill="#488DF4"/>
<path d="M15.271 43.6319C13.5842 43.6319 12.2168 42.2645 12.2168 40.5777C12.2168 38.8909 13.5842 37.5234 15.271 37.5234C16.9578 37.5234 18.3252 38.8909 18.3252 40.5777C18.3252 42.2645 16.9578 43.6319 15.271 43.6319Z" fill="#488DF4"/>
<path d="M47.5586 27.9243C47.5586 29.6111 46.1912 30.9786 44.5044 30.9786C42.8176 30.9786 41.4502 29.6111 41.4502 27.9243C41.4502 26.2375 42.8176 24.8701 44.5044 24.8701C46.1912 24.8701 47.5586 26.2375 47.5586 27.9243Z" fill="#488DF4"/>
<path d="M65.0108 27.9243C65.0108 29.6111 63.6434 30.9786 61.9566 30.9786C60.2698 30.9786 58.9023 29.6111 58.9023 27.9243C58.9023 26.2375 60.2698 24.8701 61.9566 24.8701C63.6434 24.8701 65.0108 26.2375 65.0108 27.9243Z" fill="#488DF4"/>
<path fill-rule="evenodd" clip-rule="evenodd" d="M42.7594 32.2872L36.651 38.3956L35.1084 36.853L41.2168 30.7446L42.7594 32.2872Z" fill="#488DF4"/>
<path fill-rule="evenodd" clip-rule="evenodd" d="M41.0141 25.3063L34.9056 19.1979L36.4482 17.6553L42.5567 23.7637L41.0141 25.3063Z" fill="#488DF4"/>
<path fill-rule="evenodd" clip-rule="evenodd" d="M11.3441 13.0895L5.23571 6.98109L6.77832 5.43848L12.8868 11.5469L11.3441 13.0895Z" fill="#488DF4"/>
<path fill-rule="evenodd" clip-rule="evenodd" d="M28.3601 16.1435L19.6338 16.1435L19.6338 13.9619L28.3601 13.9619L28.3601 16.1435Z" fill="#488DF4"/>
<path fill-rule="evenodd" clip-rule="evenodd" d="M57.5935 29.2333L48.8672 29.2333L48.8672 27.0518L57.5935 27.0518L57.5935 29.2333Z" fill="#488DF4"/>
<path fill-rule="evenodd" clip-rule="evenodd" d="M28.3601 41.4501L19.6338 41.4501L19.6338 39.2686L28.3601 39.2686L28.3601 41.4501Z" fill="#488DF4"/>
</svg>
