<svg width="22" height="12" viewBox="0 0 22 12" fill="none" xmlns="http://www.w3.org/2000/svg">
<path fill-rule="evenodd" clip-rule="evenodd" d="M7.40088 10.8011C6.95638 10.9306 6.4863 11 6 11C3.23858 11 1 8.76142 1 6C1 3.23858 3.23858 1 6 1C6.4863 1 6.95638 1.06942 7.40088 1.1989C7.74104 0.943495 8.10923 0.723395 8.5 0.544043C7.73894 0.194744 6.89221 0 6 0C2.68629 0 0 2.68629 0 6C0 9.31371 2.68629 12 6 12C6.89221 12 7.73894 11.8053 8.5 11.456C8.10923 11.2766 7.74104 11.0565 7.40088 10.8011Z" fill="#FFDE17"/>
<circle cx="16" cy="6" r="5.5" stroke="#FF8A00"/>
<path fill-rule="evenodd" clip-rule="evenodd" d="M12.4009 10.8011C11.9564 10.9306 11.4863 11 11 11C8.23858 11 6 8.76142 6 6C6 3.23858 8.23858 1 11 1C11.4863 1 11.9564 1.06942 12.4009 1.1989C12.741 0.943495 13.1092 0.723395 13.5 0.544043C12.7389 0.194744 11.8922 0 11 0C7.68629 0 5 2.68629 5 6C5 9.31371 7.68629 12 11 12C11.8922 12 12.7389 11.8053 13.5 11.456C13.1092 11.2766 12.741 11.0565 12.4009 10.8011Z" fill="#EA3CA4"/>
</svg>
