<svg width="24" height="24" viewBox="0 0 24 24" fill="none" xmlns="http://www.w3.org/2000/svg">
<path fill-rule="evenodd" clip-rule="evenodd" d="M6.51376 13.7511C4.51518 11.7525 4.51518 8.51215 6.51376 6.51357C8.51234 4.51499 11.7527 4.51499 13.7513 6.51357C15.7499 8.51215 15.7499 11.7525 13.7513 13.7511C11.7527 15.7497 8.51234 15.7497 6.51376 13.7511ZM5.06626 5.06607C2.26824 7.86408 2.26824 12.4006 5.06626 15.1986C7.61916 17.7515 11.6193 17.9751 14.4257 15.8695C14.4414 15.8875 14.4578 15.9051 14.4749 15.9222L17.37 18.8172C17.7697 19.217 18.4177 19.217 18.8175 18.8172C19.2172 18.4175 19.2172 17.7694 18.8175 17.3697L15.9224 14.4747C15.9053 14.4576 15.8877 14.4412 15.8697 14.4255C17.9753 11.6191 17.7517 7.61896 15.1988 5.06607C12.4008 2.26805 7.86427 2.26805 5.06626 5.06607Z" fill="white"/>
</svg>
